<svg xmlns="http://www.w3.org/2000/svg" viewBox="0 0 64 64" role="img" aria-label="GeoIP">
  <defs>
    <linearGradient id="pinGradient" x1="0%" y1="0%" x2="100%" y2="100%">
      <stop offset="0%" stop-color="#f8fafc" />
      <stop offset="100%" stop-color="#cbd5f5" />
    </linearGradient>
  </defs>
  <rect width="64" height="64" rx="10" fill="#050505" />
  <g stroke-linecap="round" stroke-linejoin="round">
    <path d="M32 49c9 0 16-7 16-16s-7-16-16-16-16 7-16 16 7 16 16 16z" fill="none" stroke="#e2e8f0" stroke-width="3.2" />
    <path d="M32 11c12.703 0 23 10.297 23 23s-10.297 23-23 23-23-10.297-23-23 10.297-23 23-23z" fill="none" stroke="#94a3b8" stroke-width="2.8" opacity="0.68" />
  </g>
  <path d="M32 11.5c-7.25 0-13.1 5.85-13.1 13.1 0 9.7 13.1 23.4 13.1 23.4S45.1 34.3 45.1 24.6c0-7.25-5.85-13.1-13.1-13.1zm0 18.3a5.2 5.2 0 1 1 0-10.4 5.2 5.2 0 0 1 0 10.4z" fill="url(#pinGradient)" />
</svg>
